<svg width="1666" height="1624" viewBox="0 0 1666 1624" fill="none" xmlns="http://www.w3.org/2000/svg">
<path fill-rule="evenodd" clip-rule="evenodd" d="M1626.33 820.561C1626.54 826.864 1624.5 832.683 1619.9 837.524C1617.83 839.697 1615.68 841.787 1613.56 843.909C1363.95 1093.51 1114.35 1343.12 864.746 1592.72C863.332 1594.14 861.933 1595.57 860.503 1596.96C848.198 1608.99 834.34 1609.07 821.709 1597.16C819.77 1595.33 817.932 1593.4 816.046 1591.51C567.149 1342.62 318.251 1093.72 69.356 844.82C66.764 842.227 64.008 839.766 61.668 836.961C53.247 826.861 53.565 812.971 62.311 803.203C63.643 801.716 65.12 800.357 66.534 798.943C317.07 548.404 567.613 297.873 818.107 47.294C824.902 40.497 831.876 34.279 842.291 35.802C846.738 36.452 851.36 37.833 855.215 40.069C859.157 42.355 862.416 45.934 865.701 49.219C1114.86 298.327 1363.99 547.465 1613.13 796.586C1619.79 803.238 1626.48 809.803 1626.33 820.561ZM95.618 820.822C95.097 821.414 94.575 822.005 94.054 822.596C96.8 825.675 99.399 828.9 102.31 831.812C344.331 1073.88 586.376 1315.92 828.428 1557.96C830.547 1560.08 832.602 1562.32 835.003 1564.08C838.921 1566.93 843.106 1566.94 846.954 1563.82C849.017 1562.15 850.84 1560.18 852.726 1558.3C884.355 1526.76 916.011 1495.25 947.596 1463.67C1157.62 1253.67 1367.62 1043.65 1577.63 833.644C1579.75 831.523 1582.03 829.532 1583.92 827.219C1585.24 825.602 1586.02 823.542 1587.51 820.823C1089.39 820.822 592.505 820.822 95.618 820.822ZM772.257 461.594C850.928 411.337 929.176 361.349 1008.24 310.84C1013.26 315.263 1018.18 319.144 1022.59 323.544C1128.21 429.076 1233.78 534.665 1339.36 640.239C1341.72 642.594 1343.97 645.086 1346.55 647.178C1356.95 655.627 1371.75 655.049 1381.24 645.968C1391.07 636.565 1392.07 621.38 1383.38 610.592C1380.88 607.492 1377.89 604.782 1375.07 601.956C1213.41 440.284 1051.74 278.619 890.077 116.953C876.645 103.521 863.296 90.006 849.75 76.691C843.03 70.087 838.719 70.249 831.739 76.677C830.514 77.805 829.375 79.025 828.196 80.202C687.031 221.368 545.866 362.531 404.714 503.707C402.479 505.942 400.398 508.332 398.244 510.65C398.619 511.166 398.995 511.68 399.37 512.196C478.266 467.45 557.162 422.703 636.006 377.986C681.748 406.056 726.852 433.732 772.257 461.594Z" fill="black"/>
<path fill-rule="evenodd" clip-rule="evenodd" d="M95.618 820.822C592.505 820.822 1089.39 820.822 1587.52 820.822C1586.02 823.542 1585.24 825.601 1583.92 827.218C1582.03 829.531 1579.75 831.522 1577.63 833.643C1367.62 1043.65 1157.62 1253.67 947.597 1463.67C916.012 1495.25 884.356 1526.76 852.727 1558.3C850.84 1560.18 849.017 1562.15 846.955 1563.82C843.106 1566.94 838.922 1566.93 835.004 1564.07C832.603 1562.32 830.548 1560.08 828.429 1557.96C586.377 1315.92 344.332 1073.88 102.311 831.811C99.4 828.899 96.8 825.674 94.055 822.595C94.575 822.005 95.096 821.414 95.618 820.822Z" fill="white"/>
<path fill-rule="evenodd" clip-rule="evenodd" d="M772.257 461.594C726.852 433.733 681.748 406.056 636.006 377.987C557.162 422.704 478.267 467.451 399.37 512.197C398.995 511.681 398.619 511.167 398.244 510.651C400.397 508.333 402.478 505.943 404.714 503.708C545.866 362.531 687.031 221.368 828.195 80.204C829.374 79.026 830.513 77.807 831.738 76.679C838.717 70.25 843.029 70.088 849.749 76.693C863.295 90.007 876.645 103.523 890.076 116.955C1051.74 278.621 1213.41 440.286 1375.07 601.958C1377.89 604.784 1380.88 607.494 1383.38 610.594C1392.07 621.382 1391.07 636.567 1381.24 645.97C1371.75 655.051 1356.95 655.629 1346.55 647.18C1343.97 645.087 1341.72 642.596 1339.36 640.241C1233.78 534.667 1128.21 429.078 1022.59 323.546C1018.18 319.146 1013.26 315.265 1008.24 310.842C929.176 361.349 850.928 411.337 772.257 461.594Z" fill="white"/>
</svg>
